<svg xmlns="http://www.w3.org/2000/svg" viewBox="145 201 179 179">
  <path fill="#101820" d="M196.4,309c-3.5-4.2-5.5-9.2-5.9-14.6c-0.4-5.8,1.3-11.2,4.9-15.7c1.1-1.3,2.2-2.4,3.3-3.5c0.4-0.4,0.9-0.8,1.3-1.3l2.5-2.6l1.1-1.1l3.4-3.5l3.7-20.5l-34.8,0.1l-16.6,91.3l34.8-0.1l4.7-26C198,310.7,197.2,309.9,196.4,309Z"/>
  <path fill="#101820" d="M236.9,246.1l-4.5,24.9c0,0.1,0.1,0.1,0.1,0.2l0.9,1.7l0.1,0.2l0.8,1.6l1.3,2.5c1.1,2.2,2.2,4.4,3.3,6.6c2.1,4.1,2.7,8.6,1.9,13.5c-1.1,6.2-4.3,11.4-9.5,15.4c-0.1,0.1-0.3,0.2-0.5,0.3c-0.4,0.3-0.9,0.6-1.3,0.9c-1.7,1.1-3.5,2-5.4,2.6l-3.7,20.6l25.4-0.1l1.3,0c4.5-0.3,8.2-3.5,9.3-7.8l0.3-1.6l14.9-82L236.9,246.1Z"/>
  <path fill="#0086D6" d="M226.6,307.5c0.1-0.1,0.2-0.1,0.3-0.2c3.8-2.9,6-6.5,6.8-11c0.6-3.4,0.2-6.4-1.2-9.1c-1.5-3-3.1-6.1-4.6-9.1c-0.3-0.6-0.6-1.2-0.9-1.9c-1.2-2.4-2.4-4.8-3.6-7.2l-3-5.9l-11.6,12l-1.1,1.1l-2.5,2.5c-0.5,0.5-0.9,0.9-1.4,1.4c-1,1-1.9,1.9-2.7,2.9c-2.5,3.1-3.6,6.7-3.3,10.8c0.3,3.9,1.8,7.5,4.2,10.4c0.9,1.1,2,2.1,3.1,2.9c2.3,1.8,5,3,8,3.5c0.3,0,0.6,0,0.9,0.1c0.6,0,1.3,0.1,1.9,0.1c0,0,0.1,0,0.1,0c3.5,0,6.7-1,9.6-2.9C226,307.9,226.3,307.7,226.6,307.5ZM219,304.4c-2.9,1.6-5.5-2.6-3-4.4c0.1-0.1,0.2-0.2,0.3-0.2c2.9-1.6,4.9-4.2,5.6-7.5c0.5-2.2,3-2.4,4.4-1.2c0.7,0.6,1.1,1.5,0.8,2.6C226,298.2,223.1,302.1,219,304.4Z"/>
  <path fill="#101820" d="M293.2,319l26.3-0.1l-3.1,16.9l-49.2,0.2l2.2-11.7c2.3-12.8,10.1-17.4,16.1-20.6c5.5-3,14.5-3.9,15.5-9.6c0.4-2.1-0.7-3.1-2.6-3.1c-2.4,0-3.4,1.5-4,5.1c0,0-13.6,0.1-20.4,0.1c2.8-15.6,13.8-21.1,26.8-21.2c12.3-0.1,25.3,5.5,22.4,20.9C319.6,314.9,296.3,312,293.2,319Z"/>
</svg>
